<svg t="1758611322393" viewBox="0 0 1024 1024" version="1.1" xmlns="http://www.w3.org/2000/svg"
    p-id="13165">
    <path
        d="M33.394286 330.285714l-0.765715 0.971429 438.857143 216 0.777143-0.971429c11.588571 6.765714 24.731429 11.725714 39.805714 11.725715s28.114286-4.868571 39.76-11.725715l0.788572 0.971429 438.857143-216-0.777143-0.971429c19.554286-11.485714 33.337143-30.102857 33.337143-52.251428s-13.782857-40.765714-33.36-52.228572l0.777143-1.04-438.857143-216-0.788572 0.96C540.182857 2.96 527.108571 0 512.034286 0s-28.217143 4.891429-39.862857 11.725714l-0.72-0.96-438.857143 214 0.765714 1.04C13.748571 237.257143 0.034286 255.805714 0.034286 278.034286S13.748571 318.8 33.394286 330.285714zM950.891429 449.977143c-29.497143 0-40.64 12.754286-40.64 12.754286L512.034286 653.108571 112.994286 459.771429c-11.657143-6.857143-24.914286-8-39.794286-9.794286-50.422857-5.931429-73.142857 28.662857-73.142857 64 0 22.205714 13.714286 40.765714 33.36 52.228571L471.462857 783.268571l0.777143-1.028571c11.588571 6.857143 24.788571 11.782857 39.805714 11.782857s28.137143-4.891429 39.794286-11.782857l0.788571 1.028571L990.731429 572.342857c19.52-11.531429 33.302857-34.137143 33.302857-56.285714 0-35.417143-32.777143-66.08-73.142857-66.08zM950.891429 680c-29.497143 0-40.64 12.742857-40.64 12.742857L512.034286 883.154286 112.994286 689.805714c-11.657143-6.754286-24.914286-8-39.851429-9.714285-50.365714-6.057143-73.142857 28.571429-73.142857 64 0 22.217143 13.714286 40.765714 33.36 52.228571L471.462857 1013.314286l0.777143-1.028572C483.828571 1019.04 496.96 1024 512.034286 1024s28.137143-4.891429 39.794285-11.782857l0.788572 1.028571L990.731429 802.285714c19.52-11.542857 33.302857-34.08 33.302857-56.24 0-35.36-32.777143-66.045714-73.142857-66.045714z"
        p-id="13166"></path>
</svg>