<svg t="1758510522888" viewBox="0 0 1024 1024" version="1.1"
    xmlns="http://www.w3.org/2000/svg" p-id="2466">
    <path
        d="M211.859709 0.019199a74.109267 74.109267 0 0 1 55.03797 22.719163 75.325222 75.325222 0 0 1 23.039151 55.613949v133.243086a75.261225 75.261225 0 0 1-23.039151 55.549952 73.917274 73.917274 0 0 1-55.03797 22.78316H78.104641a73.917274 73.917274 0 0 1-55.037971-22.78316A75.261225 75.261225 0 0 1 0.02752 211.595397V78.352311A75.38922 75.38922 0 0 1 23.06667 22.738362 74.109267 74.109267 0 0 1 78.104641 0.019199h133.755068z m369.266383 0a76.797168 76.797168 0 0 1 78.077121 78.333112v133.243086a77.245152 77.245152 0 0 1-22.399174 55.549952 76.349185 76.349185 0 0 1-55.677947 22.78316H445.451095a76.349185 76.349185 0 0 1-55.677947-22.78316 74.685246 74.685246 0 0 1-22.399174-55.549952V78.352311a74.813241 74.813241 0 0 1 22.399174-55.613949A76.797168 76.797168 0 0 1 445.451095 0.019199h135.674997z m364.786548 0a74.109267 74.109267 0 0 1 55.037971 22.719163 75.325222 75.325222 0 0 1 23.03915 55.613949v133.243086a75.261225 75.261225 0 0 1-23.03915 55.549952 73.917274 73.917274 0 0 1-55.037971 22.78316h-135.674996a76.349185 76.349185 0 0 1-55.677947-22.78316 75.261225 75.261225 0 0 1-23.039151-55.549952V78.352311a75.38922 75.38922 0 0 1 23.039151-55.613949A76.797168 76.797168 0 0 1 810.237644 0.019199h135.674996zM211.859709 367.045665a73.917274 73.917274 0 0 1 55.03797 22.78316 75.133229 75.133229 0 0 1 23.039151 55.549952v133.243086a75.261225 75.261225 0 0 1-23.039151 55.549952 73.917274 73.917274 0 0 1-55.03797 22.78316H78.104641a73.917274 73.917274 0 0 1-55.037971-22.78316A75.261225 75.261225 0 0 1 0.02752 578.621863V445.378777a75.133229 75.133229 0 0 1 23.03915-55.549952 73.917274 73.917274 0 0 1 55.037971-22.78316h133.755068z m369.266383 0a77.181154 77.181154 0 0 1 78.077121 78.333112v133.243086a77.245152 77.245152 0 0 1-22.399174 55.549952 76.349185 76.349185 0 0 1-55.677947 22.78316H445.451095a76.349185 76.349185 0 0 1-55.677947-22.78316 74.685246 74.685246 0 0 1-22.399174-55.549952V445.378777a74.621248 74.621248 0 0 1 22.399174-55.549952 76.349185 76.349185 0 0 1 55.677947-22.78316h135.674997z m364.786548 0a73.917274 73.917274 0 0 1 55.037971 22.78316 75.133229 75.133229 0 0 1 23.03915 55.549952v133.243086a75.261225 75.261225 0 0 1-23.03915 55.549952 73.917274 73.917274 0 0 1-55.037971 22.78316h-135.674996a76.349185 76.349185 0 0 1-55.677947-22.78316 75.261225 75.261225 0 0 1-23.039151-55.549952V445.378777a75.133229 75.133229 0 0 1 23.039151-55.549952 76.349185 76.349185 0 0 1 55.677947-22.78316h135.674996zM211.859709 734.072131a73.917274 73.917274 0 0 1 55.03797 22.78316 75.261225 75.261225 0 0 1 23.039151 55.549952v133.243086a75.261225 75.261225 0 0 1-23.039151 55.549952 73.917274 73.917274 0 0 1-55.03797 22.78316H78.104641a73.917274 73.917274 0 0 1-55.037971-22.78316 75.261225 75.261225 0 0 1-23.03915-55.549952v-133.243086a75.261225 75.261225 0 0 1 23.03915-55.549952 73.917274 73.917274 0 0 1 55.037971-22.78316h133.755068z m369.266383 0a76.349185 76.349185 0 0 1 55.677947 22.78316 77.245152 77.245152 0 0 1 22.399174 55.549952v133.243086a77.245152 77.245152 0 0 1-22.399174 55.549952 76.349185 76.349185 0 0 1-55.677947 22.78316H445.451095a76.349185 76.349185 0 0 1-55.677947-22.78316 74.685246 74.685246 0 0 1-22.399174-55.549952v-133.243086a74.685246 74.685246 0 0 1 22.399174-55.549952 76.349185 76.349185 0 0 1 55.677947-22.78316h135.674997z m364.786548 0a73.917274 73.917274 0 0 1 55.037971 22.78316 75.261225 75.261225 0 0 1 23.03915 55.549952v133.243086a75.261225 75.261225 0 0 1-23.03915 55.549952 73.917274 73.917274 0 0 1-55.037971 22.78316h-135.674996a76.349185 76.349185 0 0 1-55.677947-22.78316 75.261225 75.261225 0 0 1-23.039151-55.549952v-133.243086a75.261225 75.261225 0 0 1 23.039151-55.549952 76.349185 76.349185 0 0 1 55.677947-22.78316h135.674996z"
        p-id="2467"></path>
</svg>